<svg width="147" height="34" viewBox="0 0 147 34" fill="none" xmlns="http://www.w3.org/2000/svg">
<g clip-path="url(#clip0_302_21)">
<path d="M40.3203 25.5016L46.1741 12.3633H49.1765L55.0504 25.5016H51.8617L47.0585 13.9029H48.2602L43.4385 25.5016H40.3203ZM43.2472 22.6859L44.0544 20.3772H50.8078L51.6335 22.6859H43.2472Z" fill="#141414"/>
<path d="M60.9944 25.6534C59.9853 25.6698 58.9874 25.4392 58.0877 24.9818C57.2539 24.5542 56.5541 23.9048 56.0655 23.1049C55.5769 22.3051 55.3184 21.3859 55.3184 20.4485C55.3184 19.5111 55.5769 18.5919 56.0655 17.792C56.5541 16.9922 57.2539 16.3427 58.0877 15.9151C58.9874 15.4577 59.9853 15.2272 60.9944 15.2435C61.9629 15.2222 62.9202 15.4537 63.772 15.9151C64.5449 16.3438 65.157 17.0128 65.5157 17.8208L63.2467 19.0415C63.0221 18.6065 62.681 18.2426 62.2615 17.9904C61.8702 17.7668 61.4266 17.651 60.976 17.6546C60.5041 17.6471 60.0385 17.7629 59.625 17.9904C59.2262 18.2146 58.8983 18.5462 58.6784 18.9474C58.4498 19.4148 58.331 19.9282 58.331 20.4485C58.331 20.9688 58.4498 21.4822 58.6784 21.9495C58.8987 22.3509 59.2265 22.6829 59.625 22.9082C60.0385 23.1358 60.5041 23.2515 60.976 23.244C61.4264 23.2456 61.8694 23.1299 62.2615 22.9082C62.6854 22.6578 63.0276 22.2898 63.2467 21.8488L65.5157 23.0862C65.1536 23.8929 64.5392 24.5599 63.7652 24.9869C62.9149 25.4454 61.9601 25.675 60.9944 25.6534Z" fill="#141414"/>
<path d="M72.0828 25.6532C71.0365 25.6759 70.0002 25.4455 69.062 24.9816C68.2315 24.5661 67.5338 23.9263 67.048 23.1346C66.5659 22.3269 66.3189 21.4006 66.3348 20.46C66.3182 19.5169 66.5615 18.5875 67.038 17.7736C67.5004 16.9953 68.165 16.357 68.9613 15.9266C69.8005 15.496 70.7291 15.2683 71.6723 15.2619C72.6155 15.2554 73.5471 15.4705 74.3921 15.8897C75.1718 16.2994 75.8212 16.9194 76.2667 17.6795C76.7485 18.5344 76.9887 19.5042 76.9615 20.4852C76.9615 20.5993 76.9615 20.7269 76.9414 20.8713C76.9213 21.0157 76.9162 21.15 76.9045 21.2743H68.7062V19.5718H75.3655L74.2411 20.0755C74.252 19.5987 74.1423 19.1268 73.9222 18.7037C73.7168 18.3252 73.4115 18.0104 73.0394 17.7937C72.64 17.5659 72.1867 17.45 71.727 17.4579C71.2643 17.4508 70.8079 17.5666 70.4046 17.7937C70.0258 18.009 69.7166 18.3283 69.5134 18.7138C69.291 19.1457 69.1808 19.6267 69.1929 20.1124V20.5624C69.1828 21.0716 69.3091 21.5742 69.5587 22.0181C69.8 22.4327 70.1594 22.7659 70.5908 22.9751C71.0806 23.206 71.617 23.3209 72.1583 23.3109C72.6417 23.3206 73.1224 23.238 73.5748 23.0675C73.991 22.8986 74.3701 22.6499 74.6908 22.3354L76.2483 24.0245C75.771 24.5597 75.1741 24.9744 74.5062 25.2351C73.7328 25.5288 72.91 25.6708 72.0828 25.6532Z" fill="#141414"/>
<path d="M83.2465 25.6544C82.3481 25.6674 81.462 25.4439 80.6771 25.0063C79.9209 24.5789 79.2964 23.9523 78.8713 23.1947C78.4335 22.3444 78.2051 21.4017 78.2051 20.4453C78.2051 19.4888 78.4335 18.5462 78.8713 17.6959C79.2962 16.939 79.9232 16.3152 80.6821 15.8943C81.4688 15.4623 82.3542 15.2424 83.2515 15.2563C84.0333 15.238 84.8053 15.4324 85.4853 15.8188C86.1448 16.2198 86.6628 16.8167 86.9672 17.5263C87.3163 18.2897 87.4914 19.2658 87.4925 20.4545C87.4936 21.6433 87.3258 22.616 86.989 23.3726C86.7005 24.0859 86.1911 24.6878 85.5356 25.0903C84.8383 25.4838 84.0467 25.6789 83.2465 25.6544ZM83.75 23.2517C84.2041 23.2578 84.6515 23.1419 85.0456 22.9159C85.4376 22.6846 85.7586 22.3501 85.9737 21.9488C86.2023 21.483 86.3211 20.9709 86.3211 20.452C86.3211 19.933 86.2023 19.421 85.9737 18.9552C85.7568 18.5578 85.436 18.227 85.0456 17.9981C84.6515 17.7723 84.2041 17.6563 83.75 17.6623C83.2904 17.6548 82.8371 17.7708 82.4376 17.9981C82.0463 18.2265 81.7248 18.5574 81.5078 18.9552C81.2803 19.4213 81.1621 19.9332 81.1621 20.452C81.1621 20.9708 81.2803 21.4827 81.5078 21.9488C81.7231 22.3505 82.0448 22.6851 82.4376 22.9159C82.8381 23.1439 83.2926 23.2599 83.7533 23.2517H83.75ZM86.3949 25.5033V23.4381L86.452 20.436L86.264 17.4508V11.5742H89.1909V25.4999L86.3949 25.5033Z" fill="#141414"/>
<path d="M91.8945 25.5039V11.5781H94.8214V17.4547L94.6335 20.44L94.6888 23.442V25.5072L91.8945 25.5039ZM97.8608 25.655C97.0608 25.6774 96.2697 25.4824 95.5716 25.0908C94.9116 24.6909 94.3983 24.0885 94.1082 23.3732C93.7725 22.6042 93.6047 21.6315 93.6047 20.4551C93.6047 19.2786 93.7837 18.3026 94.1417 17.5269C94.4509 16.8177 94.9713 16.2214 95.632 15.8193C96.312 15.4329 97.084 15.2385 97.8658 15.2568C98.76 15.2423 99.6423 15.4623 100.425 15.8949C101.18 16.3179 101.804 16.9413 102.228 17.6965C102.664 18.5471 102.892 19.4896 102.892 20.4458C102.892 21.4021 102.664 22.3446 102.228 23.1952C101.802 23.9516 101.179 24.5779 100.425 25.0069C99.6426 25.4459 98.7578 25.6695 97.8608 25.655ZM97.3573 23.2523C97.8126 23.2649 98.2623 23.1492 98.6552 22.9186C99.048 22.6879 99.3682 22.3515 99.5793 21.9477C99.8079 21.4819 99.9267 20.9698 99.9267 20.4509C99.9267 19.9319 99.8079 19.4199 99.5793 18.954C99.3651 18.5534 99.044 18.2201 98.6517 17.9913C98.2594 17.7624 97.8113 17.647 97.3573 17.6578C96.8971 17.6501 96.4433 17.766 96.0432 17.9936C95.6538 18.221 95.3353 18.5524 95.1235 18.9507C94.9015 19.4184 94.7863 19.9297 94.7863 20.4475C94.7863 20.9653 94.9015 21.4766 95.1235 21.9444C95.3335 22.3465 95.6522 22.6816 96.0432 22.9115C96.4418 23.1402 96.8944 23.2579 97.3539 23.2523H97.3573Z" fill="#141414"/>
<path d="M109.643 25.6534C108.648 25.6738 107.664 25.4428 106.781 24.9818C105.972 24.5531 105.291 23.9154 104.811 23.1349C104.337 22.3189 104.088 21.3921 104.088 20.4484C104.088 19.5048 104.337 18.578 104.811 17.762C105.289 16.9797 105.97 16.3415 106.781 15.9151C107.669 15.4788 108.645 15.252 109.634 15.252C110.624 15.252 111.6 15.4788 112.487 15.9151C113.31 16.3506 113.999 17.0024 114.48 17.8002C114.96 18.5981 115.214 19.512 115.214 20.4434C115.214 21.3749 114.96 22.2887 114.48 23.0866C113.999 23.8845 113.31 24.5362 112.487 24.9717C111.611 25.4326 110.633 25.667 109.643 25.6534ZM109.643 23.2507C110.102 23.2582 110.556 23.1423 110.955 22.9149C111.347 22.6855 111.665 22.3503 111.875 21.9478C112.097 21.4801 112.212 20.9688 112.212 20.451C112.212 19.9332 112.097 19.4219 111.875 18.9541C111.664 18.5555 111.345 18.224 110.955 17.9971C110.553 17.7747 110.101 17.658 109.642 17.658C109.183 17.658 108.731 17.7747 108.329 17.9971C107.938 18.2255 107.617 18.5564 107.401 18.9541C107.172 19.42 107.053 19.932 107.053 20.451C107.053 20.9699 107.172 21.482 107.401 21.9478C107.615 22.3494 107.936 22.684 108.329 22.9149C108.729 23.1425 109.183 23.2585 109.643 23.2507Z" fill="#141414"/>
<path d="M120.074 25.6543C119.377 25.6724 118.685 25.5341 118.049 25.2496C117.523 25.0126 117.074 24.632 116.755 24.1515C116.454 23.6882 116.297 23.146 116.303 22.5934C116.292 22.0358 116.445 21.4873 116.745 21.0168C117.09 20.5274 117.578 20.1572 118.143 19.9574C118.78 19.701 119.612 19.5729 120.638 19.5729H123.324V21.2804H120.957C120.269 21.2804 119.796 21.3929 119.541 21.6162C119.418 21.7188 119.32 21.8473 119.253 21.9925C119.186 22.1377 119.153 22.2959 119.155 22.4557C119.149 22.6292 119.186 22.8014 119.263 22.957C119.34 23.1125 119.455 23.2466 119.596 23.3473C119.952 23.5878 120.377 23.7057 120.806 23.6831C121.268 23.69 121.722 23.5697 122.12 23.3355C122.508 23.1 122.804 22.7394 122.959 22.313L123.409 23.6562C123.219 24.2777 122.804 24.8061 122.246 25.1388C121.688 25.4824 120.964 25.6543 120.074 25.6543ZM123.151 25.5031V23.532L122.964 23.1005V19.5746C122.964 18.9477 122.774 18.4597 122.392 18.1105C122.011 17.7612 121.426 17.586 120.638 17.5849C120.1 17.5847 119.564 17.6702 119.052 17.8385C118.574 17.9853 118.126 18.2173 117.73 18.5235L116.679 16.4768C117.285 16.0634 117.958 15.7589 118.668 15.5768C119.438 15.3646 120.233 15.2573 121.031 15.2578C122.569 15.2578 123.764 15.6205 124.614 16.3458C125.464 17.0711 125.89 18.2034 125.891 19.7425V25.5048L123.151 25.5031Z" fill="#141414"/>
<path d="M128.535 25.5015V15.4039H131.329V18.2582L130.937 17.4322C131.217 16.741 131.727 16.1676 132.38 15.8086C133.126 15.4208 133.96 15.2307 134.8 15.2562V17.9577C134.676 17.9459 134.563 17.9359 134.464 17.9308C134.365 17.9258 134.258 17.9208 134.146 17.9208C133.346 17.9208 132.698 18.1491 132.204 18.6058C131.709 19.0625 131.463 19.7727 131.464 20.7365V25.5032L128.535 25.5015Z" fill="#141414"/>
<path d="M140.787 25.6544C139.888 25.6673 139.001 25.4439 138.216 25.0063C137.458 24.5796 136.831 23.953 136.405 23.1947C135.968 22.344 135.74 21.4016 135.74 20.4453C135.74 19.489 135.968 18.5465 136.405 17.6959C136.83 16.939 137.457 16.3152 138.216 15.8943C139.003 15.4623 139.889 15.2424 140.787 15.2563C141.568 15.2382 142.339 15.4326 143.019 15.8188C143.678 16.2198 144.196 16.8167 144.501 17.5263C144.851 18.2897 145.026 19.2658 145.026 20.4545C145.026 21.6433 144.858 22.616 144.523 23.3726C144.234 24.0859 143.725 24.6878 143.069 25.0903C142.374 25.4831 141.585 25.6781 140.787 25.6544ZM141.29 23.2517C141.744 23.258 142.192 23.142 142.586 22.9159C142.978 22.685 143.299 22.3504 143.514 21.9488C143.742 21.483 143.861 20.9709 143.861 20.452C143.861 19.933 143.742 19.421 143.514 18.9552C143.298 18.5575 142.977 18.2265 142.586 17.9981C142.192 17.7721 141.744 17.6561 141.29 17.6623C140.831 17.6548 140.377 17.7708 139.978 17.9981C139.587 18.226 139.266 18.5571 139.05 18.9552C138.821 19.421 138.702 19.933 138.702 20.452C138.702 20.9709 138.821 21.483 139.05 21.9488C139.264 22.3507 139.585 22.6855 139.978 22.9159C140.378 23.1436 140.832 23.2596 141.292 23.2517H141.29ZM143.937 25.5033V23.4381L143.992 20.436L143.806 17.4508V11.5742H146.731V25.4999L143.937 25.5033Z" fill="#141414"/>
<path d="M31.4296 0.721703C30.9462 0.558564 30.4394 0.475756 29.9292 0.476568H5.00532C3.7492 0.477902 2.54492 0.977703 1.65671 1.86631C0.768498 2.75491 0.268917 3.95974 0.267584 5.21642V30.1481C0.266774 30.6579 0.349548 31.1644 0.51261 31.6474L0.710645 32.2317L2.44765 30.4923L2.43422 30.3244C2.43422 30.269 2.43422 30.2119 2.43422 30.1565V5.21138C2.43511 4.52811 2.70681 3.87309 3.18974 3.38995C3.67266 2.90681 4.32739 2.63499 5.01035 2.6341H29.9292C29.9863 2.6341 30.0417 2.6341 30.097 2.6341L30.2733 2.64753L32.0103 0.908071L31.4296 0.721703Z" fill="url(#paint0_linear_302_21)"/>
<path d="M34.4212 3.7132L34.2282 3.12891L32.4895 4.86837L32.5046 5.04466C32.5046 5.10007 32.5046 5.15715 32.5046 5.21256V30.1493C32.5037 30.8325 32.232 31.4875 31.7491 31.9707C31.2662 32.4538 30.6115 32.7256 29.9285 32.7265H5.0046C4.94754 32.7265 4.89216 32.7265 4.83677 32.7265L4.66056 32.7131L2.92188 34.4526L3.50591 34.6507C3.98926 34.814 4.49612 34.8968 5.00628 34.8958H29.9285C31.1846 34.8945 32.3889 34.3947 33.2771 33.5061C34.1653 32.6175 34.6649 31.4126 34.6662 30.156V5.21256C34.667 4.70273 34.5843 4.19623 34.4212 3.7132Z" fill="url(#paint1_linear_302_21)"/>
<path d="M26.208 18.9914L28.6546 19.9231L27.4828 8L17.2365 15.5714L19.7644 16.7015C19.7644 16.7015 17.2345 27.7147 7.91602 25.7539C7.91602 25.7539 17.629 31.8781 26.208 18.9914Z" fill="url(#paint2_linear_302_21)"/>
<path d="M11.5296 24.7047C11.5296 24.7047 4.87382 22.163 6.1031 13.5488C6.1031 13.5488 1.36458 26.3424 11.5296 24.7047Z" fill="url(#paint3_linear_302_21)"/>
</g>
<defs>
<linearGradient id="paint0_linear_302_21" x1="0.267584" y1="16.3516" x2="32.0119" y2="16.3516" gradientUnits="userSpaceOnUse">
<stop stop-color="#6495ED"/>
<stop offset="1" stop-color="#DE3163"/>
</linearGradient>
<linearGradient id="paint1_linear_302_21" x1="2.9202" y1="19.009" x2="34.6662" y2="19.009" gradientUnits="userSpaceOnUse">
<stop stop-color="#6495ED"/>
<stop offset="1" stop-color="#DE3163"/>
</linearGradient>
<linearGradient id="paint2_linear_302_21" x1="7.91602" y1="17.6035" x2="28.6546" y2="17.6035" gradientUnits="userSpaceOnUse">
<stop stop-color="#6495ED"/>
<stop offset="1" stop-color="#DE3163"/>
</linearGradient>
<linearGradient id="paint3_linear_302_21" x1="5.0047" y1="19.1992" x2="11.5296" y2="19.1992" gradientUnits="userSpaceOnUse">
<stop stop-color="#6495ED"/>
<stop offset="1" stop-color="#DE3163"/>
</linearGradient>
<clipPath id="clip0_302_21">
<rect width="147" height="34" fill="white"/>
</clipPath>
</defs>
</svg>
